PathFileType	4	(X/Y/Z)	Patient4_TMGait_0pt3_01_left_20.trc.trc
DataRate	CameraRate	NumFrames	NumMarkers	Units	OrigDataRate	OrigDataStartFrame	OrigNumFrames
52.434456928839	52.434456928839	6	33	mm	52.434456928839	106	       141
Frame#	Time	Sacral			L.Shoulder			Chest			R.Shoulder			Neck			R.ASIS			L.ASIS			R.Thigh.Superior			R.Thigh.Lateral			R.Thigh.Inferior			R.Patella			L.Thigh.Superior			L.Thigh.Lateral			L.Thigh.Inferior			L.Patella			L.Shank.Superior			L.Shank.Lateral			L.Shank.Inferior			R.Shank.Superior			R.Shank.Lateral			R.Shank.Inferior			R.Heel			R.Midfoot.Superior			R.Midfoot.Lateral			R.Toe			L.Heel			L.Midfoot.Lateral			L.Midfoot.Superior			L.Toe			L.Elbow			L.Wrist			R.Elbow			R.Wrist			
		X1	Y1	Z1	X2	Y2	Z2	X3	Y3	Z3	X4	Y4	Z4	X5	Y5	Z5	X6	Y6	Z6	X7	Y7	Z7	X8	Y8	Z8	X9	Y9	Z9	X10	Y10	Z10	X11	Y11	Z11	X12	Y12	Z12	X13	Y13	Z13	X14	Y14	Z14	X15	Y15	Z15	X16	Y16	Z16	X17	Y17	Z17	X18	Y18	Z18	X19	Y19	Z19	X20	Y20	Z20	X21	Y21	Z21	X22	Y22	Z22	X23	Y23	Z23	X24	Y24	Z24	X25	Y25	Z25	X26	Y26	Z26	X27	Y27	Z27	X28	Y28	Z28	X29	Y29	Z29	X30	Y30	Z30	X31	Y31	Z31	X32	Y32	Z32	X33	Y33	Z33	

106	39.402500000000	722.598269936864	985.715036553752	572.446007095115	893.569722268402	1415.814102378016	377.291412624700	993.928759122240	1354.043950447950	542.420366542904	905.575652100949	1428.929200928741	713.147088888600	877.195150202512	1482.342768776513	534.091219835469	958.496560033801	934.116511377947	685.485705069957	937.204900699956	950.566851756678	411.473133566006	1005.694298291740	731.707886198114	645.347442854945	925.798554169891	614.464893821661	695.463210401700	1002.668742803161	568.319326804997	611.899832918879	1002.589320497654	472.587694890782	611.409892290231	1026.194999781061	765.412442590164	449.376268042250	984.598978308647	636.262401105853	373.377666336303	1082.324417787104	573.652846283670	445.037248239976	1093.072521231015	483.065891566417	435.293802968588	1024.388681769396	419.654609114536	418.225084467756	882.349110931259	383.847453817775	365.514391416082	868.559573636061	250.495239152269	407.824480010621	956.616481109432	386.099288986243	613.746436432719	870.695076238683	292.628899185143	673.345582005124	890.937094442317	196.296799223901	605.152047507187	730.462954981667	44.956560958585	575.257985702359	903.127473869707	96.795930484082	612.070164875944	813.063605069350	37.673137927393	650.527325235493	1021.447347790570	40.670972288583	643.326120394156	679.145473417795	184.763766375147	441.436210958260	734.054671786212	148.511559701266	355.300764703393	839.036542796050	151.751811188857	376.233717048511	913.074309026440	42.330357024447	332.528580268396	879.071881059697	1055.476228121814	281.484845173766	944.769935377757	804.218416114559	289.096299972104	920.323460401803	1088.167294082885	855.523437338387	1134.763738490838	944.528631299523	875.270088967444	
107	39.421571428571	721.898101216250	985.305260610723	575.719249152334	889.647173945599	1414.967123466950	378.184295496940	992.669705179738	1353.742487181009	541.897462486987	907.014559157655	1428.953049597347	713.902555108925	875.910571551151	1481.978461714778	535.049444467533	958.724449195085	933.504379366985	686.124026204069	934.678991013660	950.679271511001	412.433871461261	1004.512360398338	730.636922245940	645.493488379570	924.672853558570	613.581384462998	696.023605888555	1000.669886809718	567.298316437213	611.820905013611	1000.080383779728	471.417788061049	611.158999193884	1025.979104023000	767.995569656866	450.673842918042	986.431891404648	638.280460167997	374.686506800720	1084.979691587013	577.299129589848	446.378128181681	1097.964778429741	487.556849084186	436.476144895913	1032.289465087498	422.369771163028	419.191549664472	892.388408772823	379.460527305652	367.275052667827	886.361069265220	245.543810495292	409.134077356446	953.386628922343	385.151509240600	613.667087604737	867.076409678247	292.173682029486	673.558491513554	886.214249764490	195.797458671186	605.150080582750	724.732224028131	45.080566422570	575.393679225123	897.367587323933	96.655820158864	612.024057833756	807.354284159671	37.681692541370	650.618563980724	1015.722271409774	40.550482802240	643.363660865606	701.599865348417	167.674198765164	443.893341181138	758.193705320799	136.571356524876	356.826983420472	862.507174205007	146.862432250170	377.146885703270	943.488784817921	43.804357090776	331.507064727956	863.287143130867	1054.654798430413	285.479938658767	912.978626779936	799.620073486892	294.882864869840	934.694326019389	1088.892536277609	855.561083097690	1159.207279521487	961.878121723562	869.075626516497	
108	39.440642857143	721.197495240700	985.323171752877	578.700550686926	885.936375378979	1414.485657865753	378.981847513328	991.583410239116	1353.678476108604	541.195048034079	908.709374077420	1429.276424255465	714.428722415960	874.853471235680	1481.912578357515	535.861657864482	958.838275474944	933.092378026535	686.549264930338	932.191885721547	951.067071188121	413.164956849075	1002.861279150771	729.686034855626	645.529449979013	922.924481300100	612.968548999391	696.588134033543	998.007572806311	566.417650169773	611.812598447327	996.805054786904	470.495518032715	611.054813765485	1025.122675955408	770.348006382483	451.587950956799	987.182399502456	640.282694913945	375.494099449808	1086.281782497765	580.612900111842	447.170337440270	1101.432028069359	492.042058244376	437.129585351192	1039.270853812216	425.117925518960	419.652893424250	902.453970241679	374.139769114820	368.135727632958	904.999817355139	240.060706850005	409.830190053741	949.574120488764	384.452099519422	613.713695416870	862.992274154700	291.840050612745	673.828339648649	881.251655554756	195.442929770798	605.224987165513	719.012483536261	45.219853609450	575.548660849642	891.589501463389	96.519079635131	611.983775764655	801.641486238588	37.694249474102	650.709708012146	1009.992279659998	40.422952822509	643.402389295392	725.972649557169	149.372517619173	445.276775274583	784.468446004232	123.385893425987	357.691655030274	887.624979422948	141.247159862526	377.704262037272	975.879618245616	45.230616681352	331.027554337730	847.307022988869	1054.833703063920	289.107542695744	882.430616980440	797.367496276398	300.432636633447	949.322551868569	1090.456013832821	855.040016900784	1182.609415390277	981.011509600398	861.682692002609	
109	39.459714285714	720.495188977724	985.772164852771	581.381975861192	882.457368681303	1414.395079358451	379.689773205822	990.674101919754	1353.858044501494	540.319346988210	910.650047330666	1429.894057731077	714.722410642594	874.025870023541	1482.148627380108	536.536433832191	958.844435165647	932.890275417617	686.761640099325	929.776225267297	951.742725899516	413.656020950186	1000.758604424687	728.866873284177	645.464416806837	920.545430345422	612.636817424184	697.150299228065	994.671249862448	565.689649909071	611.872958624704	992.742649721057	469.836632812097	611.090526019682	1023.673879043376	772.450210065653	452.149512929548	986.933018418434	642.238386401668	375.790314000920	1086.308476903967	583.545455362940	447.439025984201	1103.532132240927	496.460278746299	437.299052175257	1045.297987151312	427.914602285851	419.661090064001	912.583674119604	368.235040109544	368.038513597268	924.164573080352	234.520873054813	409.924470292936	945.165692208556	384.010326302589	613.880934383514	858.428146441042	291.635143084172	674.147568443201	876.042250476533	195.239567359219	605.368851662345	713.297809354171	45.369625572888	575.717210418191	885.798434090436	96.395989261439	611.955899249095	795.921936162532	37.711036910705	650.798808197662	1004.255258626131	40.296657323539	643.441198879069	751.867862672505	130.909802189028	445.472023567243	812.459214972956	109.815770676395	357.854610875328	913.918511387984	135.430424758210	377.938705158493	1009.426443634378	46.830919249000	331.257470580560	831.356194884007	1056.046493219030	292.356263702519	853.479654130949	797.231882945690	305.662431673028	964.126261861338	1092.875035250139	853.998168511742	1204.693580120293	1001.694903121932	853.257412317441	
110	39.478785714286	719.800913227917	986.627535020962	583.758330722998	879.226337006080	1414.690472683103	380.306476395680	989.940290808132	1354.268781278046	539.277234594559	912.813764010011	1430.783221091427	714.779080705964	873.420928987159	1482.669489612818	537.074452416841	958.752674316159	932.889048908096	686.761309019086	927.456445878542	952.695811586704	413.905105164989	998.240432683171	728.180563481528	645.302109257561	917.556094907327	612.581262305860	697.693877734626	990.678275080345	565.116451386163	611.986975011578	987.905423871938	469.444574683685	611.241315536212	1021.698619994983	774.286535752356	452.373800664541	985.769676376402	644.115339770621	375.571592361489	1085.159992192043	586.056727573513	447.198971067486	1104.340255496508	500.747648273987	437.023503127599	1050.334518810795	430.766674183743	419.272261813312	922.742626557094	362.103056976003	366.994600809398	943.477210087771	229.359735291798	409.471920626367	940.173699338317	383.823175621895	614.150032003351	853.392325796297	291.560981243418	674.502494462738	870.591702177930	195.186368251956	605.567997082632	707.582158765367	45.524388711069	575.891115506204	880.002719808215	96.297379267374	611.950074188338	790.193125567419	37.732034123908	650.883186950979	998.510041834145	40.179099632168	643.478734111646	778.758049096432	113.228608363252	444.490193208187	841.615513233393	96.658580788796	357.357197750994	940.838094599188	129.910125385483	377.910325938419	1043.287460297787	48.827940779661	332.303646004751	815.688243641081	1058.260872191622	295.224886968469	826.414305340445	798.912692147918	310.504404577103	979.006319961142	1096.135476063005	852.469194768385	1225.225450043160	1023.626523529779	843.982825276622	
111	39.497857142857	719.134626549439	987.836516425172	585.826548104732	876.256471488279	1415.335633610117	380.822012871966	989.376008795654	1354.878957390884	538.075998791036	915.165645892823	1431.903281692706	714.593376265651	873.024483553189	1483.436879761865	537.467762492871	958.578547390926	933.062010715494	686.549862045305	925.250864204941	953.890270941728	413.917557409078	995.356924949751	727.616371992670	645.041065935392	914.002022743083	612.782207941690	698.197460579309	986.070480029083	564.688337885449	612.131047737069	982.334668559238	469.309104230111	611.470812842931	1019.281963147221	775.841401408222	452.257123871065	983.779572474360	645.874169788255	374.844029040350	1082.957964411965	588.110717116155	446.454512021581	1103.945775656770	504.831787808037	436.333719896733	1054.346864950923	433.659383125658	418.540659530502	932.815934210153	356.067130969510	365.085361353484	962.511560913679	224.923026699165	408.562017481722	934.633118413858	383.875182981218	614.493877228151	847.912366453826	291.612956776552	674.876407315990	864.916411249462	195.274137123181	605.805766896376	701.859991418442	45.677436584235	576.061424747970	874.211928217470	96.232542261602	611.976742507606	784.453087568926	37.756399398251	650.960019245431	992.755882870007	40.076748230718	643.513539825038	806.010724986869	97.089162733531	442.461470391276	871.274361308821	84.571997926411	356.314162231299	967.776490734758	125.093263515734	377.698192006762	1076.630098165112	51.384378551866	334.202771945026	800.564695507472	1061.377151804561	297.717079859495	801.458303865423	802.058485917505	314.909712066241	993.850318788102	1100.191202923957	850.484674549720	1244.026660969882	1046.451955681248	834.049825997135	
